<svg width="640" height="480" viewBox="0 0 640 480" xmlns="http://www.w3.org/2000/svg">
  <metadata id="vectornest-artboard" data-vectornest-artboard="%7B%22version%22%3A2%2C%22enabled%22%3Atrue%2C%22selectedPresetId%22%3A%22custom%22%2C%22customWidth%22%3A640%2C%22customHeight%22%3A480%2C%22backgroundColor%22%3A%22%23000000%22%2C%22showMargins%22%3Atrue%2C%22marginSize%22%3A20%2C%22exportBounds%22%3A%7B%22minX%22%3A0%2C%22minY%22%3A0%2C%22width%22%3A640%2C%22height%22%3A480%7D%7D" />
  <defs>
    <radialGradient id="a" gradientUnits="objectBoundingBox" cx="50%" cy="50%" r="50%" fx="50%" fy="50%">
      <stop offset="0%" stop-color="#fff"/>
      <stop offset="60%" stop-color="#fff" stop-opacity=".6"/>
      <stop offset="100%" stop-color="#fff" stop-opacity="0"/>
    </radialGradient>
    <filter id="b" x="-20%" y="-20%" width="140%" height="140%" filterUnits="objectBoundingBox" primitiveUnits="userSpaceOnUse">
      <feColorMatrix values="0.3 0.6 0.1 0 0 0.3 0.6 0.1 0 0 0.3 0.6 0.1 0 0 0 0 0 1 0"/>
    </filter>
    <mask id="c" x="70" y="235.761" width="500" height="200" maskUnits="userSpaceOnUse" maskContentUnits="userSpaceOnUse">
      <circle xmlns="http://www.w3.org/2000/svg" cx="70" cy="335.761" r="100" fill="url(#a)">
        <animate attributeName="cx" dur="10.0s" begin="0s" fill="freeze" repeatCount="indefinite" calcMode="linear" values="70;570;70" additive="replace" accumulate="none"/>
      </circle>
    </mask>
  </defs>
<rect data-vectornest-artboard-background="true" x="0" y="0" width="640" height="480" fill="#000000" />  <path d="M101.48 90.132c-3.35 0-5.99-1.149-7.93-3.481-1.94-2.328-3.8-6.108-5.56-11.358L70 22.579h16.14l15.43 47.244c.06.238.15.35.27.319.11-.03.2-.141.26-.319l15.79-47.244h16.05l-18.88 52.542q-1.845 5.224-3.66 8.511c-1.2 2.221-2.57 3.851-4.1 4.911q-2.295 1.59-5.82 1.589m54.77 0c-5.12 0-9.56-1.059-13.32-3.22-3.77-2.149-6.69-5.209-8.77-9.179-2.09-3.982-3.14-8.672-3.14-14.091 0-5.41 1.03-10.111 3.09-14.051 2.061-3.94 4.95-7 8.68-9.181 3.74-2.179 8.131-3.259 13.19-3.259 5.231 0 9.691 1.179 13.36 3.539 3.67 2.342 6.44 5.761 8.29 10.232 1.85 4.469 2.63 9.871 2.34 16.18H145.4c.47 3.76 1.7 6.691 3.7 8.821 2 2.12 4.59 3.18 7.761 3.18q3.887.002 6.35-1.9c1.65-1.261 2.68-2.821 3.09-4.642h13.31c-.59 3.661-1.951 6.792-4.101 9.411-2.14 2.619-4.86 4.631-8.149 6.041-3.301 1.418-7 2.119-11.111 2.119m-.18-42.041c-2.88 0-5.26.941-7.14 2.8-1.89 1.83-3.06 4.33-3.53 7.461h20.461c-.241-3.711-1.331-6.362-3.271-7.912-1.93-1.569-4.11-2.349-6.52-2.349m53.44 42.041c-4.88 0-9.14-1.11-12.79-3.36-3.639-2.229-6.47-5.33-8.47-9.3-1.99-3.989-2.99-8.519-2.99-13.649 0-5.182 1-9.792 2.99-13.782 2-4 4.85-7.15 8.56-9.461 3.7-2.28 8.141-3.429 13.31-3.429 4.36 0 8.13.82 11.341 2.47 3.199 1.64 5.699 4 7.49 7.069 1.799 3.061 2.69 6.701 2.69 10.951H217.97c0-2.42-.729-4.38-2.199-5.88q-2.205-2.25-5.82-2.25c-3.06 0-5.511 1.28-7.361 3.829-1.86 2.571-2.78 6.041-2.78 10.393 0 4.298.91 7.72 2.73 10.25 1.821 2.518 4.291 3.789 7.411 3.789 2.47 0 4.54-.759 6.22-2.259 1.669-1.5 2.509-3.34 2.509-5.512h13.67c0 2.292-.51 4.631-1.5 7.012-1 2.388-2.47 4.578-4.41 6.548-1.94 1.961-4.34 3.56-7.19 4.762-2.85 1.199-6.1 1.809-9.74 1.809m61.021-1.309H258.18c-4.11 0-7.42-1.25-9.92-3.762-2.489-2.5-3.739-5.819-3.739-9.94v-25.17h-8.291v-11.48h8.291v-13.25h14.28v13.25h10.23v11.48h-10.23v22.691c0 1.121.349 2.039 1.06 2.74.699.721 1.59 1.071 2.649 1.071h8.021zm29.63 1.309c-5 0-9.44-1.11-13.32-3.36q-5.82-3.344-9.12-9.3c-2.21-3.989-3.31-8.519-3.31-13.649 0-5.242 1.1-9.872 3.31-13.872 2.199-4 5.24-7.139 9.12-9.401q5.82-3.4 13.32-3.399c5.05 0 9.509 1.131 13.36 3.399 3.849 2.262 6.88 5.401 9.08 9.401 2.21 4 3.31 8.63 3.31 13.872 0 5.13-1.1 9.66-3.31 13.649-2.2 3.97-5.231 7.071-9.08 9.3-3.851 2.25-8.31 3.36-13.36 3.36m0-12.36c3.29 0 5.98-1.289 8.069-3.89 2.081-2.589 3.13-5.929 3.13-10.059 0-4.242-1.049-7.691-3.13-10.342-2.089-2.651-4.779-3.97-8.069-3.97s-5.981 1.319-8.07 3.97-3.13 6.1-3.13 10.342c0 4.13 1.04 7.47 3.13 10.059 2.089 2.601 4.779 3.89 8.07 3.89m47.259 11.051h-14.279V59.672c0-7.25 1.95-12.811 5.86-16.701s9.51-5.82 16.799-5.82c.771 0 1.971.039 3.62.131 1.641.079 3.291.298 4.94.669v12.27c-1.12-.18-2.18-.35-3.18-.5-1-.141-2.109-.21-3.349-.21-1.82 0-3.531.271-5.11.801q-2.385.777-3.84 3c-.97 1.469-1.461 3.61-1.461 6.451zm68.88 1.309c-2.709 0-4.979-.731-6.839-2.201q-2.778-2.215-5.33-7.328L386.23 44.391c-.06-.19-.169-.27-.31-.27-.149 0-.219.11-.219.35v44.251h-14.64V32.471c0-3.659 1.07-6.43 3.22-8.35 2.139-1.92 4.66-2.871 7.54-2.871 2.94 0 5.4.761 7.409 2.3 1.991 1.53 3.7 3.761 5.111 6.711l16.76 34.8c.11.172.23.25.35.22.11-.03.169-.169.169-.399V22.579h14.641v57.494c0 3.41-1.01 5.94-3.04 7.589s-4.33 2.47-6.921 2.47m43.56 0c-5.12 0-9.56-1.059-13.32-3.22q-5.637-3.224-8.769-9.179c-2.091-3.982-3.13-8.672-3.13-14.091 0-5.41 1.029-10.111 3.089-14.051 2.051-3.94 4.95-7 8.681-9.181 3.73-2.179 8.129-3.259 13.19-3.259 5.22 0 9.68 1.179 13.35 3.539 3.68 2.342 6.44 5.761 8.3 10.232 1.85 4.469 2.619 9.871 2.33 16.18h-34.57c.469 3.76 1.71 6.691 3.71 8.821q2.987 3.18 7.759 3.18c2.581 0 4.7-.631 6.341-1.9 1.65-1.261 2.68-2.821 3.09-4.642h13.319c-.589 3.661-1.959 6.792-4.099 9.411q-3.226 3.927-8.16 6.041c-3.291 1.418-7 2.119-11.111 2.119m-.18-42.041c-2.88 0-5.26.941-7.14 2.8-1.879 1.83-3.06 4.33-3.529 7.461h20.46c-.231-3.711-1.32-6.362-3.26-7.912-1.94-1.569-4.12-2.349-6.531-2.349m50.881 42.041c-6.761 0-12.081-1.559-15.96-4.72q-5.82-4.724-5.82-12.929h12.61c.469 2.53 1.5 4.379 3.089 5.56 1.591 1.179 3.56 1.75 5.911 1.75 2.05 0 3.76-.411 5.11-1.22 1.35-.831 2.03-2 2.03-3.53 0-1.19-.51-2.06-1.541-2.661-1.029-.589-2.95-1.24-5.779-1.94-2-.459-3.75-.89-5.25-1.269a61 61 0 0 1-4.8-1.47c-2-.702-3.84-1.561-5.51-2.561-1.68-1-3.031-2.361-4.06-4.099-1.03-1.742-1.541-4.032-1.541-6.853 0-3.179.62-5.861 1.851-8.039 1.24-2.18 2.88-3.93 4.94-5.25 2.05-1.321 4.3-2.29 6.74-2.869 2.44-.581 4.839-.881 7.19-.881 3.94 0 7.439.679 10.499 2.07 3.051 1.39 5.459 3.29 7.219 5.73 1.771 2.459 2.651 5.3 2.651 8.53h-13.401c0-1.76-.778-3.23-2.338-4.419-1.56-1.161-3.39-1.75-5.51-1.75q-2.206-.001-4.411 1.049c-1.469.701-2.199 1.86-2.199 3.451 0 1.049.47 1.949 1.41 2.679.94.739 2.76 1.49 5.46 2.27 1 .22 2.19.53 3.579.88 1.38.341 2.741.69 4.091 1 1.359.341 2.48.639 3.36.94 3.818 1.121 6.589 2.831 8.329 5.122 1.73 2.298 2.601 5.189 2.601 8.65 0 5.309-1.81 9.419-5.421 12.38-3.619 2.929-8.659 4.399-15.129 4.399m59.44-1.309h-12.34c-4.12 0-7.431-1.25-9.931-3.762-2.5-2.5-3.739-5.819-3.739-9.94v-25.17h-8.29v-11.48h8.29v-13.25h14.279v13.25h10.231v11.48H558.27v22.691c0 1.121.361 2.039 1.061 2.74.71.721 1.59 1.071 2.639 1.071h8.031z" fill="#fff"/>
  <circle fill="#fff" transform="translate(46.495 34.495)scale(.925)" cx="600.005" cy="440.005" r="20">
    <animateTransform attributeName="transform" type="translate" dur="3.0s" begin="0s" fill="freeze" repeatCount="indefinite" calcMode="spline" keyTimes="0;0.18;0.35;0.53;0.7;0.85;1" keySplines="0.3 0 0.6 1; 0.2 0 0.4 1; 0.3 0 0.6 1; 0.2 0 0.4 1; 0.3 0 0.6 1; 0.3 0 0.6 1" values="0 0; 0 -52; 0 0; 0 -26; 0 0; 0 -9; 0 0" additive="sum" accumulate="none"/>
    <animateTransform attributeName="transform" type="translate" dur="3.0s" begin="0s" fill="freeze" repeatCount="indefinite" calcMode="spline" keyTimes="0;0.18;0.35;0.53;0.7;0.85;1" keySplines="0.3 0 0.6 1; 0.2 0 0.4 1; 0.3 0 0.6 1; 0.2 0 0.4 1; 0.3 0 0.6 1; 0.3 0 0.6 1" values="0 0; 60 -44; -132 97; 30 -22; -72 53; 12 -9; 0 0" additive="sum" accumulate="none"/>
    <animateTransform attributeName="transform" type="scale" dur="3.0s" begin="0s" fill="freeze" repeatCount="indefinite" calcMode="spline" keyTimes="0;0.18;0.35;0.53;0.7;0.85;1" keySplines="0.3 0 0.6 1; 0.2 0 0.4 1; 0.3 0 0.6 1; 0.2 0 0.4 1; 0.3 0 0.6 1; 0.3 0 0.6 1" values="1 1; 0.9 1.1; 1.22 0.78; 0.95 1.05; 1.12 0.88; 0.98 1.02; 1 1" additive="sum" accumulate="none"/>
  </circle>
  <text x="319.997" y="259.522" font-size="32" font-family="Arial" fill="#fff" stroke-width="0" text-anchor="middle" dominant-baseline="alphabetic" letter-spacing="0" stroke-linecap="round" stroke-linejoin="round" transform="translate(.003 -129.27)" data-rich-text="%3Cspan%20style%3D%22font-weight%3Anormal%3Bfont-style%3Anormal%22%3Ea%20web%20based%20SVG%20editor%3C%2Fspan%3E%3Cbr%3E%3Cspan%20style%3D%22font-weight%3Anormal%3Bfont-style%3Anormal%22%3Edeveloped%20with%20AI%20assistance%E2%80%8B%3C%2Fspan%3E%3Cbr%3E%3Cspan%20style%3D%22font-weight%3Anormal%3Bfont-style%3Anormal%22%3Ein%20a%20plugin%20centric%20architecture%3C%2Fspan%3E"><tspan x="319.997">a web based SVG editor</tspan><tspan x="319.997" dy="38.4">developed with AI assistance​</tspan><tspan x="319.997" dy="38.4">in a plugin centric architecture</tspan></text>
  <image x="70" y="235.761" width="500" height="200" href="./870-500x200.jpg" preserveAspectRatio="none" filter="url(#b)" mask="url(#c)"/>
</svg>
