<svg xmlns="http://www.w3.org/2000/svg" width="82" height="79.995" viewBox="-23.106 7.125 82 79.995"><path d="M17.894 7.125c22.552 0 41 17.001 41 40.002 0 21.999-18.448 39.993-41 39.993-23.575 0-41-17.994-41-39.993 0-23.001 17.425-40.002 41-40.002"/><path fill="none" stroke="#b8b2b2" stroke-linecap="round" stroke-linejoin="round" stroke-width="8" d="m30.676 26.325 4.017 39.39"/><path fill="none" stroke="#fff" stroke-linecap="round" stroke-linejoin="round" stroke-width="8" d="m-5.12 43.691 12.84 22.04 22.97-39.39"/><path fill="#47d6ff" stroke="#000" stroke-linecap="round" stroke-linejoin="round" d="M29.193 26.315c0-.828.651-1.49 1.491-1.49.832 0 1.479.662 1.479 1.49 0 .832-.647 1.492-1.479 1.492-.84 0-1.491-.66-1.491-1.492"/><path fill="#d75b5b" stroke="#000" stroke-linecap="round" stroke-linejoin="round" d="M33.693 65.715c0-.561.442-1 1-1a.986.986 0 0 1 1.003 1c0 .558-.433 1-1.003 1-.558 0-1-.442-1-1"/><path fill="#47d6ff" stroke="#000" stroke-linecap="round" stroke-linejoin="round" d="M6.235 65.746c0-.832.659-1.491 1.479-1.491.84 0 1.5.659 1.5 1.491 0 .829-.66 1.487-1.5 1.487-.82 0-1.479-.658-1.479-1.487"/><path fill="#32a44f" stroke="#000" stroke-linecap="round" stroke-linejoin="round" d="M-7.126 43.697c0-1.113.891-2 1.99-2 1.121 0 2.01.887 2.01 2 0 1.107-.889 2-2.01 2a1.993 1.993 0 0 1-1.99-2"/><path fill="none" stroke="#f79aa3" stroke-linecap="round" stroke-linejoin="round" stroke-width=".1" d="M35.41 64.9c-.66.74-1.55 1.09-1.7 1.09-.37 0 .03-.77.56-.77.52 0 .42.88.55.72l.12-.22.11.22.12-.28.12.28.11-.32.12.32.12-.37.12.42h-1.52"/></svg>